<svg xmlns="http://www.w3.org/2000/svg" width="686" height="587" viewBox="0 0 686 587"><line x1="537.5390625" y1="228.98437500000003" x2="420.0449147391911" y2="150.45889987617983" stroke="#facc15" stroke-width="4" stroke-linecap="round"/><polygon points="401.75390625,138.234375 424.4901965123474,143.80762406192852 415.5996329660348,157.11017569043113" fill="#facc15"/><polyline points="521.0703125,172.42578125 521.0703125,172.1953125 520.83984375,171.96484375 520.83984375,171.50390625 519.79296875,169.4140625 517.42578125,167.046875 510.8203125,159.15625 507.1640625,153.91015625 505.91796875,150.65234375 505.6875,149.9609375 505.6875,148.625 505.9140625,147.47265625 506.14062500000006,147.01171875 507.46875000000006,145.96484375 509.21093749999994,145.37890625 510.12500000000006,144.6875 513.65234375,142.44140625 518.40625,140.578125 530.0234375,138.78125 535.53125,138.78125 538.02734375,138.78125 538.94140625,138.78125 539.625,139.0078125 541.296875,140.6796875 541.9296875,142.53125 542.96875,144.61328125 543.375,147.86328125 543.828125,148.77734375 543.828125,151.2734375 543.828125,154.5234375 543.828125,155.8515625 543.828125,159.1015625 543.828125,161.59765625 543.828125,164.09375 543.3046875,169.3046875 542.71875,171.046875 541.83984375,172.7890625 541.83984375,174.1171875 541.609375,174.80078125 541.37890625,175.02734375 541.1484375,175.02734375 540.91796875,175.02734375 540.2265625,175.02734375 535.3359375,175.02734375 532.83203125,174.32421875 531.49609375,173.5703125 530.16015625,172.75390625 529.23828125,172.0625 528.31640625,171.140625 525.00390625,167.3046875 522.55859375,164.859375 518.55078125,160.296875 514.7890625,154.3125 511.171875,150.09375" stroke="#facc15" stroke-width="5" fill="none" stroke-linecap="round" stroke-linejoin="round"/><line x1="362.56640625" y1="145.578125" x2="455.0091155237116" y2="219.41108199706116" stroke="#facc15" stroke-width="4" stroke-linecap="round"/><polygon points="472.19921875000006,233.14062500000003 450.0165544317338,225.66202862480242 460.0016766156894,213.1601353693199" fill="#facc15"/><line x1="487.203125" y1="113.59765625" x2="525.82436624821" y2="99.69136445853336" stroke="#facc15" stroke-width="4" stroke-linecap="round"/><polygon points="546.5234375,92.23828125 528.5345783240404,107.21829945918425 523.1141541723797,92.16442945788246" fill="#facc15"/><line x1="583.29296875" y1="126.51562500000001" x2="577.0308064277768" y2="213.18220598909562" stroke="#facc15" stroke-width="4" stroke-linecap="round"/><polygon points="575.4453125,235.12500000000003 569.0516086056298,212.60566274263132 585.0100042499239,213.75874923555992" fill="#facc15"/><line x1="489.59765625" y1="285.8203125" x2="290.3993457173952" y2="231.30351186280475" stroke="#facc15" stroke-width="4" stroke-linecap="round"/><polygon points="269.1796875,225.49609375 292.5111341220515,223.58727251102468 288.2875573127389,239.01975121458483" fill="#facc15"/></svg>